HIERARCHY
ROOT Hips
{
	OFFSET 0.000000 0.000000 0.000000
	CHANNELS 6 Xposition Yposition Zposition Xrotation Yrotation Zrotation
	JOINT LeftUpLeg_virtual
	{
		OFFSET 0.000000 0.000000 0.000000
		CHANNELS 3 Xrotation Yrotation Zrotation
		JOINT LeftUpLeg
		{
			OFFSET 11.394100 -6.187798 -0.413800
			CHANNELS 3 Xrotation Yrotation Zrotation
			JOINT LeftLeg
			{
				OFFSET 0.430247 -32.302673 3.732800
				CHANNELS 3 Xrotation Yrotation Zrotation
				JOINT LeftFoot
				{
					OFFSET -0.430247 -48.264931 -6.423300
					CHANNELS 3 Xrotation Yrotation Zrotation
					JOINT LeftToeBase
					{
						OFFSET 4.230900 -16.068199 23.438400
						CHANNELS 3 Xrotation Yrotation Zrotation
						JOINT LeftToe_End
						{
							OFFSET 4.510700 0.695400 19.974600
							CHANNELS 3 Xrotation Yrotation Zrotation
							End Site
							{
								OFFSET 0 0 0
							}
						}
					}
				}
			}
		}
	}
	JOINT RightUpLeg_virtual
	{
		OFFSET 0.000000 0.000000 0.000000
		CHANNELS 3 Xrotation Yrotation Zrotation
		JOINT RightUpLeg
		{
			OFFSET -11.333700 -6.187798 -0.413800
			CHANNELS 3 Xrotation Yrotation Zrotation
			JOINT RightLeg
			{
				OFFSET -0.430392 -32.302628 3.733000
				CHANNELS 3 Xrotation Yrotation Zrotation
				JOINT RightFoot
				{
					OFFSET 0.430392 -48.264973 -6.423500
					CHANNELS 3 Xrotation Yrotation Zrotation
					JOINT RightToeBase
					{
						OFFSET -4.230900 -16.068199 23.438400
						CHANNELS 3 Xrotation Yrotation Zrotation
						JOINT RightToe_End
						{
							OFFSET -4.510700 0.695400 19.974600
							CHANNELS 3 Xrotation Yrotation Zrotation
							End Site
							{
								OFFSET 0 0 0
							}
						}
					}
				}
			}
		}
	}
	JOINT Spine_virtual
	{
		OFFSET 0.000000 0.000000 0.000000
		CHANNELS 3 Xrotation Yrotation Zrotation
		JOINT Spine
		{
			OFFSET -0.002400 12.777504 0.315300
			CHANNELS 3 Xrotation Yrotation Zrotation
			JOINT Spine1
			{
				OFFSET -0.002067 5.816869 0.032633
				CHANNELS 3 Xrotation Yrotation Zrotation
				JOINT Spine1_split
				{
					OFFSET -0.002067 5.816869 0.032633
					CHANNELS 3 Xrotation Yrotation Zrotation
					JOINT Spine2
					{
						OFFSET -0.002067 5.816869 0.032633
						CHANNELS 3 Xrotation Yrotation Zrotation
						JOINT Neck_virtual
						{
							OFFSET 0.000000 0.000000 0.000000
							CHANNELS 3 Xrotation Yrotation Zrotation
							JOINT Neck
							{
								OFFSET -0.003700 21.199493 -0.826900
								CHANNELS 3 Xrotation Yrotation Zrotation
								JOINT Head
								{
									OFFSET 0.000000 20.442200 4.834800
									CHANNELS 3 Xrotation Yrotation Zrotation
									JOINT HeadTop_End
									{
										OFFSET 0.000000 34.668396 4.968400
										CHANNELS 3 Xrotation Yrotation Zrotation
										End Site
										{
											OFFSET 0 0 0
										}
									}
								}
							}
						}
						JOINT LeftShoulder_virtual
						{
							OFFSET 0.000000 0.000000 0.000000
							CHANNELS 3 Xrotation Yrotation Zrotation
							JOINT LeftShoulder
							{
								OFFSET 3.288150 8.794197 -1.372250
								CHANNELS 3 Xrotation Yrotation Zrotation
								JOINT LeftShoulder_split
								{
									OFFSET 3.288150 8.794197 -1.372250
									CHANNELS 3 Xrotation Yrotation Zrotation
									JOINT LeftArm
									{
										OFFSET 11.953299 -2.279007 -0.146200
										CHANNELS 3 Xrotation Yrotation Zrotation
										JOINT LeftForeArm
										{
											OFFSET 18.448900 0.000000 0.000000
											CHANNELS 3 Xrotation Yrotation Zrotation
											JOINT LeftHand
											{
												OFFSET 29.527798 0.000000 0.000000
												CHANNELS 3 Xrotation Yrotation Zrotation
												End Site
												{
													OFFSET 0 0 0
												}
											}
										}
									}
								}
							}
						}
						JOINT RightShoulder_virtual
						{
							OFFSET 0.000000 0.000000 0.000000
							CHANNELS 3 Xrotation Yrotation Zrotation
							JOINT RightShoulder
							{
								OFFSET -3.249400 8.794197 -1.372250
								CHANNELS 3 Xrotation Yrotation Zrotation
								JOINT RightShoulder_split
								{
									OFFSET -3.249400 8.794197 -1.372250
									CHANNELS 3 Xrotation Yrotation Zrotation
									JOINT RightArm
									{
										OFFSET -11.953299 -2.279007 -0.146200
										CHANNELS 3 Xrotation Yrotation Zrotation
										JOINT RightForeArm
										{
											OFFSET -18.448900 0.000000 0.000000
											CHANNELS 3 Xrotation Yrotation Zrotation
											JOINT RightHand
											{
												OFFSET -29.527802 0.000000 0.000000
												CHANNELS 3 Xrotation Yrotation Zrotation
												End Site
												{
													OFFSET 0 0 0
												}
											}
										}
									}
								}
							}
						}
					}
				}
			}
		}
	}
}
MOTION
Frames: 5
Frame Time: 0.03333333
7.259387 64.534409 117.377151 0.000000 0.000000 0.000000 24.199953 -55.437650 31.383305 -66.311527 -49.225682 35.039912 82.328163 4.587830 -40.989557 0.905746 -4.221006 -27.167455 -0.555881 1.634784 0.834866 0.000000 0.000000 0.000000 24.199953 -55.437650 31.383305 -100.043809 28.828248 -11.312357 101.805233 4.570319 0.522609 -12.088031 -3.822623 17.308220 -0.401177 -1.367622 -0.696601 0.000000 0.000000 0.000000 24.199953 -55.437650 31.383305 35.897032 -1.344667 -11.557805 -1.378884 5.069774 -1.074932 0.000000 0.000000 0.000000 0.000000 0.000000 0.000000 2.611457 4.724516 -0.949068 -13.082900 21.659071 -4.421721 -5.351576 18.588187 -16.713160 0.000000 0.000000 0.000000 2.611457 4.724516 -0.949068 5.150277 -18.900477 -1.489431 0.000000 0.000000 0.000000 -27.251715 24.057093 -30.897874 -92.443851 -80.894028 -81.379389 0.000000 0.000000 0.000000 2.611457 4.724516 -0.949068 -0.410196 26.798795 18.403752 0.000000 0.000000 0.000000 -55.132570 -2.548275 13.757405 -32.600466 59.077093 28.544930 0.000000 0.000000 0.000000 
8.086451 64.578415 119.516602 0.000000 0.000000 0.000000 28.251788 -56.514590 34.130015 -67.073250 -49.651958 37.442677 85.083038 3.239519 -42.501942 -0.464268 -4.436336 -25.613978 -0.515985 1.600618 0.840197 0.000000 0.000000 0.000000 28.251788 -56.514590 34.130015 -100.436791 29.440069 -11.065842 99.755753 4.776665 0.375763 -11.465891 -3.111902 19.347358 -0.381459 -1.361532 -0.730233 0.000000 0.000000 0.000000 28.251788 -56.514590 34.130015 35.757604 -2.023048 -13.941335 -2.211917 5.602700 -0.808063 0.000000 0.000000 0.000000 0.000000 0.000000 0.000000 1.905242 5.369609 -0.299745 -12.094920 22.484177 -4.602859 -6.896210 18.777346 -15.089623 0.000000 0.000000 0.000000 1.905242 5.369609 -0.299745 6.664342 -18.263919 -2.232500 0.000000 0.000000 0.000000 -27.495673 17.707788 -32.135118 -65.949274 -80.866598 -55.485233 0.000000 0.000000 0.000000 1.905242 5.369609 -0.299745 0.392889 28.446678 18.972637 0.000000 0.000000 0.000000 -54.816899 -0.739642 15.725244 -32.159522 59.955701 28.371989 0.000000 0.000000 0.000000 
8.450420 65.327103 121.330933 0.000000 0.000000 0.000000 29.737523 -56.591645 35.305781 -67.661001 -49.615628 36.869744 86.348030 3.210973 -43.669081 -1.682943 -4.338997 -24.303065 -0.485959 1.566509 0.839998 0.000000 0.000000 0.000000 29.737523 -56.591645 35.305781 -98.301175 29.502264 -13.040568 97.434520 3.969598 -0.273261 -11.661342 -1.479953 20.921926 -0.375748 -1.327059 -0.740033 0.000000 0.000000 0.000000 29.737523 -56.591645 35.305781 34.197425 -2.547029 -16.020518 -1.873232 5.586124 -0.555368 0.000000 0.000000 0.000000 0.000000 0.000000 0.000000 2.077622 5.368868 0.484108 -12.370054 22.770474 -4.044474 -7.971468 19.199329 -14.250021 0.000000 0.000000 0.000000 2.077622 5.368868 0.484108 6.965537 -19.294373 -2.102313 0.000000 0.000000 0.000000 -28.134867 15.072542 -32.000529 -44.720886 -79.216916 -34.965992 0.000000 0.000000 0.000000 2.077622 5.368868 0.484108 0.326739 28.032102 19.689723 0.000000 0.000000 0.000000 -54.046064 0.106964 18.102720 -34.543139 63.125606 31.386413 0.000000 0.000000 0.000000 
8.549751 66.374115 123.071854 0.000000 0.000000 0.000000 29.564597 -55.851451 34.014537 -68.156272 -50.095633 35.908374 86.725746 3.191921 -44.658560 -2.725004 -4.500117 -22.691850 -0.455474 1.532619 0.839493 0.000000 0.000000 0.000000 29.564597 -55.851451 34.014537 -94.176007 28.458231 -16.480008 94.826542 4.805027 -0.249740 -12.478497 -1.847386 21.633849 -0.372290 -1.292786 -0.753684 0.000000 0.000000 0.000000 29.564597 -55.851451 34.014537 31.996796 -2.285361 -15.240806 -0.977227 5.239307 -0.628027 0.000000 0.000000 0.000000 0.000000 0.000000 0.000000 2.798411 5.021157 0.200413 -13.507340 22.638245 -3.211976 -8.766630 19.782779 -13.137918 0.000000 0.000000 0.000000 2.798411 5.021157 0.200413 5.671725 -19.772156 -2.223042 0.000000 0.000000 0.000000 -28.539450 13.287417 -31.982152 -30.990791 -76.716336 -22.029095 0.000000 0.000000 0.000000 2.798411 5.021157 0.200413 -0.985404 26.476626 20.357883 0.000000 0.000000 0.000000 -53.163720 -2.091462 19.482305 -39.765816 67.368096 37.378781 0.000000 0.000000 0.000000 
8.339951 68.037590 124.634232 0.000000 0.000000 0.000000 29.440011 -55.562851 32.915484 -67.869725 -47.873728 34.818105 84.847362 2.924170 -44.043006 -3.854344 -3.669048 -20.626232 -0.423301 1.499572 0.838926 0.000000 0.000000 0.000000 29.440011 -55.562851 32.915484 -89.391521 26.492444 -18.796886 91.427130 4.809954 -0.652814 -13.349787 -2.254096 22.234439 -0.369750 -1.259265 -0.768511 0.000000 0.000000 0.000000 29.440011 -55.562851 32.915484 28.796535 -1.992226 -14.983816 0.139931 5.044809 -0.799692 0.000000 0.000000 0.000000 0.000000 0.000000 0.000000 3.774944 4.897887 0.244573 -15.454107 22.260657 -2.134480 -9.282582 20.784064 -11.322582 0.000000 0.000000 0.000000 3.774944 4.897887 0.244573 3.779282 -19.299876 -2.558618 0.000000 0.000000 0.000000 -28.499600 10.733463 -33.466643 -20.073047 -72.353819 -11.946463 0.000000 0.000000 0.000000 3.774944 4.897887 0.244573 -2.283484 24.495640 20.457931 0.000000 0.000000 0.000000 -52.061983 -5.949166 20.419474 -49.271260 71.817158 47.679891 0.000000 0.000000 0.000000 
